# xmcd CD database file
#
# Track frame offsets:
#	150
#	15229
#	38315
#	53131
#	69331
#	83927
#	101529
#	118736
#	132770
#	150799
#	164927
#	184238
#	207856
#	227424
#	240858
#	253179
#	265167
#	284136
#
# Disc length: 3913 seconds
#
# Revision: 7
# Processed by: cddbd v1.5.1PL2 Copyright (c) Steve Scherf et al.
# Submitted via: CDex 1.51
#
DISCID=e80f4712
DTITLE=George Winston - All The Seasons of George Winston
DYEAR=1998
DGENRE=Fusion
TTITLE0=Colors/Dance
TTITLE1=The Venice Dreamer
TTITLE2=Living In The Country
TTITLE3=The Cradle
TTITLE4=Joy
TTITLE5=Treat Street
TTITLE6=Variations On The Canon By Pachelbel
TTITLE7=Thanksgiving
TTITLE8=Miles City Train
TTITLE9=Corrina, Corrina
TTITLE10=Hummingbird
TTITLE11=Longing/Love
TTITLE12=Cast Your Fate To The Wind
TTITLE13=Sandman
TTITLE14=The Snowman's Music Box Dance
TTITLE15=Northern Plains Song
TTITLE16=Sleep Baby Mine
TTITLE17=An Evening Song
EXTD=
EXTT0=
EXTT1=
EXTT2=
EXTT3=
EXTT4=
EXTT5=
EXTT6=
EXTT7=
EXTT8=
EXTT9=
EXTT10=
EXTT11=
EXTT12=
EXTT13=
EXTT14=
EXTT15=
EXTT16=
EXTT17=
PLAYORDER=
